<?xml version="1.0" encoding="UTF-8" standalone="no"?>
<!-- Generator: Adobe Illustrator 13.0.0, SVG Export Plug-In . SVG Version: 6.00 Build 14948)  -->

<svg
   version="1.1"
   id="Layer_1"
   x="0px"
   y="0px"
   width="391.7533"
   height="97.503998"
   viewBox="0 0 391.7533 97.503998"
   enable-background="new 0 0 504 360"
   xml:space="preserve"
   sodipodi:docname="logo_black.svg"
   xmlns:inkscape="http://www.inkscape.org/namespaces/inkscape"
   xmlns:sodipodi="http://sodipodi.sourceforge.net/DTD/sodipodi-0.dtd"
   xmlns="http://www.w3.org/2000/svg"
   xmlns:svg="http://www.w3.org/2000/svg"><defs
   id="defs54" /><sodipodi:namedview
   id="namedview54"
   pagecolor="#505050"
   bordercolor="#eeeeee"
   borderopacity="1"
   inkscape:showpageshadow="0"
   inkscape:pageopacity="0"
   inkscape:pagecheckerboard="0"
   inkscape:deskcolor="#505050" />

<g
   id="g6"
   transform="translate(-54.193684,-131.248)">
	<g
   id="g2">
		<path
   fill="#8cc53f"
   d="m 138.955,145.527 c -8.814,-8.817 -21.021,-14.281 -34.477,-14.279 -10.438,0 -20.133,3.289 -28.064,8.883 -7.063,4.981 -12.729,11.794 -16.339,19.749 1.853,0.108 3.422,1.121 4.921,2.199 3.207,-7.058 8.25,-13.114 14.527,-17.54 7.061,-4.977 15.655,-7.896 24.955,-7.897 11.982,0.001 22.806,4.849 30.662,12.7 7.849,7.854 12.697,18.678 12.699,30.66 -0.002,11.982 -4.851,22.805 -12.699,30.659 -7.856,7.853 -18.68,12.698 -30.662,12.698 -11.98,0 -22.805,-4.848 -30.659,-12.698 -7.852,-7.854 -12.698,-18.677 -12.7,-30.659 0,-1.49 -1.207,-2.697 -2.697,-2.697 -1.489,0 -2.696,1.208 -2.696,2.697 -0.002,13.454 5.461,25.659 14.28,34.473 8.814,8.82 21.02,14.281 34.473,14.277 13.455,0.004 25.662,-5.457 34.477,-14.277 8.818,-8.813 14.28,-21.02 14.277,-34.473 0.002,-13.455 -5.46,-25.66 -14.278,-34.475 z"
   id="path1" />
		<path
   fill="#8cc53f"
   d="m 77.785,177.304 h -19.25 c -1.49,0 -2.697,1.208 -2.697,2.698 0,1.489 1.207,2.698 2.697,2.698 h 19.25 c 1.49,0 2.697,-1.209 2.697,-2.698 0,-1.49 -1.207,-2.698 -2.697,-2.698"
   id="path2" />
	</g>
	<g
   id="g5">
		<path
   fill="#8cc53f"
   d="m 137.957,163.722 h -11.484 v 9.955 h 11.484 c 1.708,0 3.09,-1.383 3.092,-3.091 v -3.772 c -0.002,-1.708 -1.384,-3.092 -3.092,-3.092 z m 0,22.602 h -11.484 v 9.955 h 11.484 c 1.708,0 3.09,-1.383 3.092,-3.092 v -3.771 c -0.002,-1.707 -1.384,-3.092 -3.092,-3.092 z"
   id="path3" />
		<path
   fill="#8cc53f"
   d="m 97.962,154.573 c -14.044,0 -25.429,11.384 -25.429,25.428 0,14.043 11.385,25.429 25.429,25.429 0.304,0 0.601,-0.123 0.816,-0.339 0.216,-0.217 0.339,-0.516 0.339,-0.819 v -12.775 c 0,-0.303 -0.123,-0.6 -0.339,-0.814 -0.216,-0.217 -0.513,-0.34 -0.816,-0.34 h -7.16 c -1.046,0 -1.892,-0.85 -1.895,-1.895 0.003,-1.047 0.849,-1.893 1.895,-1.896 h 7.16 c 0.304,0 0.601,-0.122 0.816,-0.338 0.216,-0.217 0.339,-0.514 0.339,-0.815 v -10.793 c 0,-0.304 -0.123,-0.601 -0.339,-0.816 -0.216,-0.216 -0.513,-0.34 -0.816,-0.34 h -7.16 c -1.046,0 -1.892,-0.848 -1.895,-1.894 0.003,-1.046 0.849,-1.892 1.895,-1.895 h 7.16 c 0.304,0 0.601,-0.123 0.816,-0.339 0.216,-0.215 0.339,-0.512 0.339,-0.816 V 155.73 c 0,-0.305 -0.123,-0.602 -0.339,-0.818 -0.215,-0.215 -0.512,-0.339 -0.816,-0.339 z"
   id="path4" />
		<path
   fill="#e6e6e6"
   d="m 124.77,154.911 c -0.215,-0.214 -0.514,-0.338 -0.816,-0.338 h -7.936 c -0.303,0 -0.6,0.124 -0.814,0.338 -0.216,0.216 -0.34,0.513 -0.34,0.818 v 9.062 l -1.85,-9.287 c -0.11,-0.541 -0.584,-0.93 -1.134,-0.93 h -10.081 c -0.305,0 -0.604,0.124 -0.817,0.338 -0.216,0.216 -0.339,0.513 -0.339,0.818 v 48.542 c 0,0.306 0.123,0.604 0.339,0.82 0.214,0.215 0.513,0.338 0.817,0.338 h 7.932 c 0.305,0 0.603,-0.123 0.816,-0.338 0.217,-0.217 0.34,-0.516 0.34,-0.82 v -9.059 l 1.85,9.287 c 0.109,0.541 0.584,0.93 1.134,0.93 h 10.083 c 0.303,0 0.602,-0.123 0.816,-0.338 0.214,-0.217 0.339,-0.516 0.339,-0.82 V 155.73 c -10e-4,-0.306 -0.126,-0.603 -0.339,-0.819 z m -16.987,36.36 3.63,-9.472 h -4.561 l 8.946,-13.069 -2.614,9.293 h 4.589 z"
   id="path5" />
	</g>
</g>
<linearGradient
   id="SVGID_1_"
   gradientUnits="userSpaceOnUse"
   x1="117.314"
   y1="169.6763"
   x2="101.064"
   y2="202.9263"
   gradientTransform="translate(-54.193684,-131.248)">
	<stop
   offset="0"
   style="stop-color:#E7E8E9"
   id="stop6" />
	<stop
   offset="1"
   style="stop-color:#B5AFAE"
   id="stop7" />
</linearGradient>
<path
   fill="url(#SVGID_1_)"
   d="m 70.289316,23.947999 c -0.135,-0.138 -0.337,-0.221 -0.53,-0.22 h -7.936 c -0.193,-0.001 -0.393,0.082 -0.531,0.22 -0.138,0.138 -0.221,0.337 -0.221,0.533 v 9.062 l -0.797,0.079 -1.85,-9.285 c -0.072,-0.355 -0.381,-0.609 -0.739,-0.608 h -10.081 c -0.196,-0.001 -0.396,0.082 -0.533,0.22 -0.139,0.138 -0.221,0.337 -0.221,0.533 v 37.536 c 2.981,1.879 6.139,3.498 9.439,4.84 v -2.892 l 0.797,-0.078 0.712,3.574 c 4.05,1.522 8.304,2.621 12.712,3.252 v -46.232 c 0.002,-0.194 -0.082,-0.395 -0.221,-0.534 z m -16.378,36.318 -0.698,-0.387 3.42,-8.924 h -4.737 l 9.377,-13.698 0.721,0.336 -2.472,8.782 h 4.864 z"
   id="path7"
   style="fill:url(#SVGID_1_)" />
<linearGradient
   id="SVGID_2_"
   gradientUnits="userSpaceOnUse"
   x1="121.707"
   y1="160.2813"
   x2="93.707001"
   y2="189.7813"
   gradientTransform="translate(-54.193684,-131.248)">
	<stop
   offset="0"
   style="stop-color:#8CC53F"
   id="stop8" />
	<stop
   offset="1"
   style="stop-color:#7C9A35"
   id="stop9" />
</linearGradient>
<path
   fill="url(#SVGID_2_)"
   d="m 83.763316,55.478999 h -11.082 v 9.152 h 11.082 c 1.485,0 2.688,-1.205 2.689,-2.691 v -3.771 c -10e-4,-1.485 -1.204,-2.69 -2.689,-2.69 z m 0.713,-40.915 c -8.74,-8.7440001 -20.842,-14.1610001 -34.184,-14.1610001 h -0.011 c -10.352,0 -19.964,3.262 -27.829,8.809 -1.387,0.9780001 -2.716,2.0330001 -3.99,3.1480001 0.058,1.996 0.211,3.965 0.455,5.908 1.893,-1.949 3.953,-3.735 6.18,-5.305 7.125,-5.0230001 15.803,-7.9710001 25.188,-7.9720001 12.093,10e-4 23.019,4.895 30.947,12.8180001 7.92,7.927 12.814,18.853 12.816,30.944 0,7.991 -2.145,15.47 -5.882,21.913 1.96,-0.289 3.893,-0.66 5.784,-1.133 3,-6.295 4.686,-13.338 4.686,-20.769 v -0.019 c 0,-13.341 -5.416,-25.44 -14.16,-34.181 z m -0.713,18.312 h -11.082 v 9.151 h 11.082 c 1.485,0 2.688,-1.203 2.689,-2.689 v -3.772 c -10e-4,-1.486 -1.204,-2.69 -2.689,-2.69 z m -39.995,-9.148 c -8.483,0 -15.97,4.225 -20.497,10.682 3.334,7.809 8.262,14.769 14.365,20.49 h 6.132 c 0.195,0.002 0.394,-0.08 0.532,-0.219 0.138,-0.139 0.222,-0.338 0.221,-0.531 v -10.792 c 10e-4,-0.196 -0.082,-0.394 -0.221,-0.532 -0.139,-0.14 -0.337,-0.222 -0.532,-0.222 h -7.161 c -1.268,-0.001 -2.293,-1.028 -2.296,-2.295 v -0.002 c 0.003,-1.268 1.029,-2.293 2.297,-2.296 h 7.16 c 0.195,0.001 0.394,-0.082 0.532,-0.221 0.139,-0.139 0.221,-0.336 0.221,-0.532 v -12.776 c 0,-0.196 -0.082,-0.395 -0.221,-0.533 -0.139,-0.138 -0.337,-0.222 -0.532,-0.221 z m 0,35.768 h -0.62 c 0.453,0.336 0.911,0.666 1.373,0.988 v -0.236 c 10e-4,-0.195 -0.082,-0.393 -0.221,-0.531 -0.139,-0.138 -0.337,-0.223 -0.532,-0.221 z"
   id="path9"
   style="fill:url(#SVGID_2_)" />
<path
   fill="#8cc53f"
   d="m 7.2753164,25.890999 4.8609996,2.193 c -0.683,2.174 0.136,3.179 0.381,5.704 0.34,3.478 -2.6819996,5.774 -3.2029996,6.131 -0.521,0.358 -1.006,0.346 -0.926,-0.004 0.081,-0.35 0.343,-1.444 0.732,-2.994 0.39,-1.551 0.342,-2.758 -1.665,-3.509 -2.007,-0.751 -3.515,-0.039 -3.95,0.873 -0.437,0.912 -0.535,2.387 -0.639,3.758 -0.103,1.372 -0.445,1.5 -0.924,1.078 -0.479,-0.423 -1.21700002,-2.275 -1.81600002,-4.659 -0.6,-2.384 1.00200002,-3.594 3.43800002,-4.996 2.308,-1.326 3.197,-2.507 3.711,-3.575 z"
   id="path10" />
<g
   id="g24"
   transform="translate(-54.193684,-131.248)">
	<path
   fill="#8cc53f"
   d="m 183.09,159.354 -2.967,3.838 h -14.371 v -14.928 h 17.295 l -2.99,3.883 h -9.662 v 1.785 h 11.826 l -2.656,3.392 h -9.17 v 2.03 z"
   id="path11" />
	<path
   fill="#8cc53f"
   d="m 200.852,159.354 -2.99,3.838 h -13.188 v -14.928 h 4.619 v 11.09 z"
   id="path12" />
	<path
   fill="#8cc53f"
   d="m 219.73,159.354 -2.969,3.838 h -14.369 v -14.928 h 17.293 l -2.99,3.883 h -9.662 v 1.785 h 11.826 l -2.654,3.392 h -9.172 v 2.03 z"
   id="path13" />
	<path
   fill="#8cc53f"
   d="m 240.146,163.192 h -6.984 l -4.508,-3.927 c -0.773,-0.67 -1.365,-1.19 -1.773,-1.563 -0.408,-0.373 -0.74,-0.684 -0.992,-0.938 0.014,0.343 0.029,0.696 0.045,1.061 0.014,0.364 0.021,0.725 0.021,1.082 v 4.284 h -4.641 v -14.928 h 4.641 v 3.458 c 0,0.462 -0.008,0.915 -0.021,1.361 -0.016,0.446 -0.039,0.863 -0.068,1.25 0.299,-0.268 0.658,-0.599 1.082,-0.993 0.424,-0.394 0.979,-0.874 1.664,-1.439 l 4.305,-3.637 h 6.695 l -5.713,4.284 c -0.49,0.372 -0.926,0.699 -1.305,0.981 -0.379,0.283 -0.719,0.528 -1.016,0.736 -0.297,0.209 -0.568,0.395 -0.814,0.558 -0.246,0.164 -0.488,0.32 -0.725,0.469 0.432,0.298 0.951,0.67 1.561,1.116 0.611,0.446 1.398,1.063 2.365,1.852 z"
   id="path14" />
	<path
   fill="#8cc53f"
   d="m 258.711,148.264 -2.99,3.883 h -5.332 v 11.045 h -4.619 v -11.045 h -7.006 l 2.99,-3.883 z"
   id="path15" />
	<path
   fill="#8cc53f"
   d="m 279.799,163.192 h -6.182 l -3.324,-3.949 h -7.096 v 3.949 h -4.619 v -7.631 h 12.986 c 0.715,0 1.315,-0.149 1.809,-0.446 0.49,-0.298 0.736,-0.707 0.736,-1.228 0,-0.58 -0.226,-1.016 -0.67,-1.306 -0.447,-0.29 -1.072,-0.435 -1.875,-0.435 h -12.986 l 3.012,-3.883 h 9.596 c 0.849,0 1.726,0.078 2.633,0.234 0.908,0.156 1.732,0.435 2.478,0.837 0.744,0.401 1.356,0.944 1.843,1.629 0.481,0.684 0.725,1.562 0.725,2.633 0,0.58 -0.09,1.131 -0.269,1.651 -0.178,0.52 -0.436,0.989 -0.77,1.405 -0.337,0.417 -0.744,0.77 -1.229,1.06 -0.482,0.291 -1.029,0.495 -1.639,0.614 0.252,0.193 0.535,0.438 0.848,0.736 0.313,0.298 0.729,0.707 1.25,1.228 z"
   id="path16" />
	<path
   fill="#8cc53f"
   d="m 291.357,148.018 c 3.629,0 6.354,0.618 8.178,1.853 1.822,1.235 2.734,3.184 2.734,5.846 0,2.678 -0.908,4.635 -2.724,5.869 -1.816,1.234 -4.545,1.852 -8.188,1.852 -3.66,0 -6.394,-0.617 -8.201,-1.852 -1.807,-1.234 -2.711,-3.191 -2.711,-5.869 0,-2.662 0.908,-4.611 2.723,-5.846 1.815,-1.235 4.545,-1.853 8.189,-1.853 z m 0,11.537 c 1.16,0 2.143,-0.049 2.944,-0.146 0.802,-0.097 1.453,-0.286 1.953,-0.569 0.498,-0.282 0.856,-0.673 1.082,-1.171 0.224,-0.498 0.334,-1.149 0.334,-1.953 0,-0.803 -0.11,-1.453 -0.334,-1.952 -0.226,-0.498 -0.584,-0.885 -1.082,-1.16 -0.5,-0.275 -1.149,-0.461 -1.953,-0.558 -0.803,-0.097 -1.784,-0.146 -2.944,-0.146 -1.16,0 -2.144,0.049 -2.945,0.146 -0.803,0.097 -1.455,0.282 -1.953,0.558 -0.498,0.276 -0.859,0.662 -1.082,1.16 -0.223,0.499 -0.334,1.149 -0.334,1.952 0,0.804 0.111,1.455 0.334,1.953 0.223,0.498 0.584,0.889 1.082,1.171 0.498,0.283 1.15,0.473 1.953,0.569 0.803,0.096 1.785,0.146 2.945,0.146 z"
   id="path17" />
	<path
   fill="#8cc53f"
   d="m 323.154,148.264 -2.99,3.883 h -5.332 v 11.045 h -4.619 v -11.045 h -7.008 l 2.99,-3.883 z"
   id="path18" />
	<path
   fill="#8cc53f"
   d="m 341.898,159.354 -2.968,3.838 h -14.37 v -14.928 h 17.293 l -2.989,3.883 h -9.662 v 1.785 h 11.826 l -2.654,3.392 h -9.172 v 2.03 z"
   id="path19" />
	<path
   fill="#8cc53f"
   d="m 362.471,159.354 -2.967,3.838 h -7.498 c -1.293,0 -2.492,-0.193 -3.592,-0.58 -1.102,-0.387 -2.049,-0.918 -2.846,-1.596 -0.795,-0.677 -1.42,-1.479 -1.873,-2.41 -0.455,-0.929 -0.683,-1.938 -0.683,-3.023 0,-1.085 0.228,-2.078 0.683,-2.979 0.453,-0.9 1.078,-1.674 1.873,-2.32 0.797,-0.647 1.743,-1.146 2.846,-1.495 1.1,-0.35 2.299,-0.524 3.592,-0.524 h 10.465 l -2.967,3.883 h -7.498 c -0.625,0 -1.205,0.089 -1.74,0.268 -0.534,0.179 -0.996,0.428 -1.383,0.747 -0.387,0.32 -0.69,0.703 -0.916,1.149 -0.223,0.446 -0.334,0.938 -0.334,1.473 0,0.535 0.107,1.023 0.324,1.462 0.215,0.438 0.52,0.814 0.914,1.127 0.395,0.312 0.859,0.554 1.395,0.725 0.536,0.171 1.115,0.257 1.74,0.257 h 10.465 z"
   id="path20" />
	<path
   fill="#8cc53f"
   d="M 382.195,163.192 H 377.6 v -5.757 h -8.881 v 5.757 h -4.641 v -14.928 h 4.641 v 5.288 h 8.881 v -5.288 h 4.597 z"
   id="path21" />
	<path
   fill="#8cc53f"
   d="m 400.158,163.437 c -0.297,0 -0.59,-0.048 -0.881,-0.145 -0.289,-0.097 -0.613,-0.316 -0.972,-0.658 l -9.147,-8.212 v 8.77 h -4.195 v -12.384 c 0,-0.491 0.07,-0.915 0.213,-1.272 0.142,-0.356 0.326,-0.646 0.558,-0.87 0.229,-0.223 0.497,-0.387 0.805,-0.491 0.305,-0.104 0.621,-0.156 0.947,-0.156 0.282,0 0.569,0.049 0.858,0.146 0.291,0.097 0.621,0.316 0.992,0.658 l 9.15,8.212 v -8.77 h 4.217 v 12.361 c 0,0.491 -0.07,0.915 -0.213,1.272 -0.142,0.356 -0.326,0.65 -0.558,0.881 -0.229,0.231 -0.502,0.398 -0.813,0.502 -0.312,0.104 -0.633,0.156 -0.961,0.156 z"
   id="path22" />
	<path
   fill="#8cc53f"
   d="m 410.111,163.192 h -4.619 v -14.928 h 4.619 z"
   id="path23" />
	<path
   fill="#8cc53f"
   d="m 431.822,163.192 h -6.984 l -4.508,-3.927 c -0.773,-0.67 -1.365,-1.19 -1.773,-1.563 -0.41,-0.372 -0.739,-0.684 -0.991,-0.938 0.014,0.343 0.028,0.696 0.043,1.061 0.016,0.364 0.022,0.725 0.022,1.082 v 4.284 h -4.641 v -14.928 h 4.641 v 3.458 c 0,0.462 -0.008,0.915 -0.022,1.361 -0.015,0.446 -0.037,0.863 -0.066,1.25 0.297,-0.268 0.658,-0.599 1.082,-0.993 0.424,-0.394 0.979,-0.874 1.662,-1.439 l 4.307,-3.637 h 6.695 l -5.713,4.284 c -0.49,0.372 -0.926,0.699 -1.306,0.981 -0.381,0.283 -0.719,0.528 -1.016,0.736 -0.299,0.209 -0.568,0.395 -0.813,0.558 -0.246,0.164 -0.488,0.32 -0.726,0.469 0.43,0.298 0.951,0.67 1.562,1.116 0.61,0.446 1.397,1.063 2.364,1.852 z"
   id="path24" />
</g>
<g
   id="g31"
   transform="translate(-54.193684,-131.248)">
	<path
   fill="#e6e6e6"
   d="m 191.4,196.344 c -0.521,0 -1.037,-0.084 -1.545,-0.254 -0.51,-0.17 -1.076,-0.555 -1.703,-1.154 l -16.041,-14.398 v 15.377 h -7.357 v -21.716 c 0,-0.86 0.125,-1.604 0.373,-2.23 0.246,-0.626 0.572,-1.135 0.979,-1.525 0.402,-0.392 0.873,-0.679 1.408,-0.861 0.533,-0.182 1.088,-0.273 1.662,-0.273 0.496,0 0.998,0.085 1.506,0.254 0.51,0.17 1.09,0.555 1.742,1.154 l 16.043,14.4 V 169.74 h 7.395 v 21.677 c 0,0.861 -0.125,1.604 -0.371,2.23 -0.25,0.625 -0.574,1.141 -0.979,1.545 -0.406,0.404 -0.881,0.699 -1.43,0.881 -0.547,0.179 -1.107,0.271 -1.682,0.271 z"
   id="path25" />
	<path
   fill="#e6e6e6"
   d="m 231.037,189.184 -5.205,6.73 h -25.197 v -26.177 h 30.324 l -5.244,6.809 h -16.941 v 3.13 h 20.736 l -4.656,5.948 h -16.08 v 3.562 h 22.263 z"
   id="path26" />
	<path
   fill="#e6e6e6"
   d="m 267.816,184.488 c 0,7.904 -5.439,11.854 -16.316,11.854 -3.156,0 -5.869,-0.247 -8.139,-0.743 -2.27,-0.494 -4.143,-1.238 -5.615,-2.229 -1.475,-0.992 -2.557,-2.226 -3.248,-3.699 -0.691,-1.473 -1.037,-3.201 -1.037,-5.185 v -14.75 h 8.061 v 14.75 c 0,0.966 0.131,1.773 0.393,2.427 0.26,0.651 0.748,1.182 1.467,1.584 0.717,0.405 1.727,0.69 3.031,0.86 1.304,0.17 3,0.254 5.088,0.254 1.563,0 2.869,-0.09 3.912,-0.272 1.043,-0.182 1.879,-0.481 2.504,-0.899 0.627,-0.416 1.076,-0.951 1.351,-1.604 0.274,-0.651 0.412,-1.435 0.412,-2.349 v -14.75 h 8.139 v 14.752 h -0.003 z"
   id="path27" />
	<path
   fill="#e6e6e6"
   d="m 289.023,179.48 c 0.572,1.018 1.076,1.911 1.506,2.68 0.432,0.77 0.809,1.455 1.135,2.055 0.326,0.6 0.613,1.148 0.861,1.643 0.248,0.496 0.488,0.979 0.723,1.447 0.209,-0.469 0.438,-0.945 0.686,-1.428 0.248,-0.483 0.535,-1.029 0.861,-1.643 0.326,-0.614 0.703,-1.297 1.135,-2.055 0.43,-0.757 0.932,-1.644 1.506,-2.662 l 4.188,-7.435 c 0.469,-0.834 1.063,-1.506 1.778,-2.015 0.717,-0.509 1.611,-0.763 2.683,-0.763 1.016,0 1.937,0.293 2.758,0.88 0.822,0.587 1.414,1.494 1.779,2.72 l 6.613,23.007 h -8.062 l -2.465,-9.117 c -0.418,-1.486 -0.77,-2.791 -1.057,-3.912 -0.287,-1.121 -0.535,-2.217 -0.742,-3.288 -0.445,0.914 -0.939,1.924 -1.488,3.032 -0.547,1.109 -1.266,2.512 -2.152,4.207 l -3.521,6.574 c -0.338,0.652 -0.685,1.166 -1.037,1.545 -0.352,0.379 -0.711,0.672 -1.075,0.881 -0.365,0.207 -0.757,0.346 -1.175,0.41 -0.416,0.064 -0.873,0.098 -1.369,0.098 -0.495,0 -0.95,-0.033 -1.368,-0.098 -0.418,-0.065 -0.81,-0.203 -1.175,-0.41 -0.364,-0.209 -0.723,-0.502 -1.075,-0.881 -0.352,-0.379 -0.697,-0.893 -1.037,-1.545 l -3.521,-6.613 c -0.469,-0.887 -0.887,-1.682 -1.252,-2.387 -0.365,-0.705 -0.697,-1.336 -0.998,-1.898 -0.299,-0.561 -0.561,-1.076 -0.781,-1.544 -0.223,-0.47 -0.438,-0.926 -0.646,-1.37 -0.209,1.044 -0.457,2.132 -0.742,3.268 -0.289,1.135 -0.627,2.444 -1.019,3.932 l -2.465,9.117 h -7.942 l 6.77,-23.007 c 0.365,-1.226 0.966,-2.133 1.8,-2.72 0.834,-0.587 1.762,-0.88 2.778,-0.88 1.043,0 1.922,0.248 2.642,0.743 0.717,0.496 1.311,1.174 1.778,2.034 z"
   id="path28" />
	<path
   fill="#e6e6e6"
   d="m 331.281,195.914 4.891,-6.73 h 6.574 c 0.781,0 1.596,0 2.445,0 0.846,0 1.584,0.025 2.209,0.078 -0.365,-0.469 -0.789,-1.063 -1.271,-1.779 -0.481,-0.719 -0.945,-1.391 -1.389,-2.016 l -4.695,-6.926 -12.285,17.374 h -9.586 l 16.785,-23.672 c 0.547,-0.757 1.238,-1.435 2.074,-2.035 0.834,-0.6 1.891,-0.899 3.168,-0.899 1.227,0 2.25,0.28 3.072,0.841 0.821,0.562 1.52,1.259 2.094,2.094 l 16.354,23.672 h -30.44 z"
   id="path29" />
	<path
   fill="#e6e6e6"
   d="m 391.145,196.344 c -0.521,0 -1.034,-0.084 -1.545,-0.254 -0.508,-0.17 -1.075,-0.555 -1.7,-1.154 l -16.043,-14.398 v 15.377 H 364.5 v -21.716 c 0,-0.86 0.123,-1.604 0.371,-2.23 0.248,-0.626 0.574,-1.135 0.979,-1.525 0.404,-0.392 0.873,-0.679 1.408,-0.861 0.535,-0.182 1.09,-0.273 1.664,-0.273 0.494,0 0.996,0.085 1.506,0.254 0.508,0.17 1.088,0.555 1.74,1.154 l 16.043,14.4 V 169.74 h 7.396 v 21.677 c 0,0.861 -0.123,1.604 -0.371,2.23 -0.248,0.625 -0.574,1.141 -0.979,1.545 -0.405,0.403 -0.881,0.699 -1.428,0.881 -0.55,0.179 -1.11,0.271 -1.684,0.271 z"
   id="path30" />
	<path
   fill="#e6e6e6"
   d="m 426.906,196.344 c -0.521,0 -1.035,-0.084 -1.545,-0.254 -0.509,-0.17 -1.076,-0.555 -1.701,-1.154 l -16.043,-14.398 v 15.377 h -7.355 v -21.716 c 0,-0.86 0.123,-1.604 0.371,-2.23 0.248,-0.626 0.574,-1.135 0.979,-1.525 0.403,-0.392 0.873,-0.679 1.407,-0.861 0.535,-0.182 1.091,-0.273 1.664,-0.273 0.494,0 0.996,0.085 1.507,0.254 0.508,0.17 1.088,0.555 1.739,1.154 l 16.043,14.4 V 169.74 h 7.396 v 21.677 c 0,0.861 -0.123,1.604 -0.371,2.23 -0.248,0.625 -0.574,1.141 -0.979,1.545 -0.404,0.403 -0.881,0.699 -1.428,0.881 -0.549,0.179 -1.11,0.271 -1.684,0.271 z"
   id="path31" />
</g>
<linearGradient
   id="SVGID_3_"
   gradientUnits="userSpaceOnUse"
   x1="295.3877"
   y1="195.4014"
   x2="295.38751"
   y2="195.4006">
	<stop
   offset="0"
   style="stop-color:#FFFFFF"
   id="stop31" />
	<stop
   offset="1"
   style="stop-color:#000000"
   id="stop32" />
</linearGradient>
<polygon
   fill="url(#SVGID_3_)"
   points="295.389,195.4 295.387,195.402 295.389,195.4 "
   id="polygon32"
   style="fill:url(#SVGID_3_)"
   transform="translate(-54.193684,-131.248)" />
<linearGradient
   id="SVGID_4_"
   gradientUnits="userSpaceOnUse"
   x1="213.7188"
   y1="182.8252"
   x2="430.86719"
   y2="182.8252"
   gradientTransform="translate(-54.193684,-131.248)">
	<stop
   offset="0"
   style="stop-color:#948D8B"
   id="stop33" />
	<stop
   offset="1"
   style="stop-color:#E7E8E9"
   id="stop34" />
</linearGradient>
<path
   fill="url(#SVGID_4_)"
   d="m 254.35732,39.345999 c -0.742,-0.528 -1.547,-0.785 -2.467,-0.787 -0.994,10e-4 -1.771,0.231 -2.393,0.671 -0.652,0.464 -1.195,1.074 -1.633,1.852 l -4.188,7.436 c -0.574,1.018 -1.076,1.905 -1.509,2.664 -0.428,0.754 -0.805,1.434 -1.127,2.041 -0.325,0.61 -0.61,1.155 -0.856,1.637 -0.244,0.475 -0.469,0.942 -0.674,1.401 l -0.431,0.97 -0.475,-0.947 c -0.234,-0.469 -0.475,-0.951 -0.723,-1.447 -0.244,-0.488 -0.529,-1.033 -0.854,-1.629 -0.324,-0.598 -0.701,-1.281 -1.132,-2.049 -0.43,-0.768 -0.934,-1.662 -1.506,-2.679 l -0.008,-0.012 -4.181,-7.386 -0.002,-0.004 c -0.438,-0.802 -0.979,-1.414 -1.625,-1.862 -0.625,-0.429 -1.393,-0.653 -2.356,-0.654 -0.922,0.002 -1.734,0.259 -2.492,0.789 -0.726,0.511 -1.265,1.305 -1.606,2.453 v -10e-4 l -4.939,16.788 c 2.074,0.557 4.178,1.107 6.313,1.652 l 1.304,-4.818 c 0.391,-1.486 0.729,-2.795 1.016,-3.928 0.285,-1.127 0.531,-2.208 0.738,-3.244 l 0.299,-1.488 0.646,1.374 c 0.207,0.444 0.424,0.899 0.645,1.369 0.217,0.459 0.475,0.97 0.771,1.524 0.301,0.563 0.635,1.197 1.002,1.902 0.362,0.702 0.778,1.497 1.248,2.381 l 3.522,6.614 0.002,0.005 c 0.267,0.514 0.533,0.903 0.797,1.223 1.736,0.399 3.496,0.795 5.271,1.188 0.152,-0.055 0.306,-0.113 0.439,-0.189 0.313,-0.18 0.633,-0.438 0.957,-0.786 0.309,-0.33 0.635,-0.812 0.959,-1.435 l 0.002,-0.006 3.523,-6.574 c 0.883,-1.69 1.6,-3.088 2.145,-4.19 0.547,-1.107 1.041,-2.117 1.486,-3.03 l 0.654,-1.347 0.285,1.47 c 0.207,1.061 0.451,2.146 0.735,3.258 0.285,1.117 0.638,2.418 1.056,3.9 v 0.002 l 2.364,8.752 h 7.015 l -6.431,-22.367 c -0.34,-1.153 -0.873,-1.947 -1.586,-2.457 z m -48.373,13.894 c 0,0.781 -0.102,1.484 -0.301,2.111 2.227,0.653 4.492,1.305 6.797,1.946 0.412,-1.198 0.643,-2.537 0.643,-4.06 v -14.25 h -7.139 z m 82.812,-13.927 c -0.724,-0.493 -1.637,-0.753 -2.789,-0.754 -1.201,10e-4 -2.144,0.278 -2.877,0.806 -0.795,0.571 -1.445,1.211 -1.957,1.919 l -16.228,22.882 h 8.359 l 12.555,-17.751 5.095,7.515 c 0.446,0.629 0.911,1.305 1.396,2.025 0.478,0.711 0.896,1.295 1.25,1.752 l 0.701,0.9 -1.137,-0.097 c -0.606,-0.05 -1.331,-0.075 -2.167,-0.075 h -8.767 l -4.164,5.73 h 28.508 l -15.813,-22.889 c -0.541,-0.785 -1.193,-1.436 -1.965,-1.963 z m -116.89,4.665 3.842,-4.989 h -16.223 c 3.91,1.654 8.027,3.321 12.381,4.989 z m 7.861,2.92 c 2.295,0.827 4.652,1.651 7.061,2.472 v -10.381 h -7.061 z m 154.748,8.088 -16.877,-15.149 -0.002,-0.002 c -0.621,-0.573 -1.158,-0.916 -1.562,-1.048 -0.463,-0.153 -0.909,-0.229 -1.348,-0.229 -0.521,0 -1.02,0.083 -1.502,0.247 -0.469,0.16 -0.869,0.405 -1.223,0.747 -0.347,0.333 -0.636,0.776 -0.861,1.35 v 10e-4 c -0.219,0.552 -0.336,1.232 -0.336,2.046 v 21.216 h 6.354 v -15.998 l 16.884,15.151 0.006,0.007 c 0.594,0.569 1.113,0.909 1.514,1.04 0.461,0.154 0.92,0.229 1.387,0.229 0.521,0 1.027,-0.082 1.525,-0.248 0.478,-0.159 0.881,-0.407 1.232,-0.76 0.348,-0.349 0.639,-0.803 0.866,-1.377 0.22,-0.551 0.336,-1.231 0.336,-2.045 v -21.177 h -6.395 v 15.999 z m 35.763,-15.997 v 16 l -16.879,-15.15 -0.002,-0.002 c -0.621,-0.573 -1.158,-0.916 -1.561,-1.048 -0.463,-0.153 -0.91,-0.229 -1.349,-0.229 -0.521,0 -1.02,0.083 -1.502,0.247 -0.469,0.16 -0.869,0.405 -1.223,0.747 -0.346,0.333 -0.635,0.776 -0.861,1.35 v 10e-4 c -0.219,0.552 -0.336,1.232 -0.336,2.046 v 21.216 h 6.355 v -15.998 l 16.886,15.151 0.006,0.006 c 0.594,0.57 1.113,0.91 1.514,1.041 0.462,0.154 0.921,0.229 1.388,0.229 0.521,0 1.026,-0.082 1.524,-0.248 0.478,-0.16 0.882,-0.408 1.232,-0.76 0.348,-0.348 0.639,-0.803 0.867,-1.377 0.219,-0.551 0.336,-1.232 0.336,-2.045 v -21.177 z"
   id="path34"
   style="fill:url(#SVGID_4_)" />
<linearGradient
   id="SVGID_5_"
   gradientUnits="userSpaceOnUse"
   x1="173.1665"
   y1="155.7271"
   x2="285.16699"
   y2="155.7271"
   gradientTransform="translate(-54.193684,-131.248)">
	<stop
   offset="0"
   style="stop-color:#768C31"
   id="stop35" />
	<stop
   offset="1"
   style="stop-color:#8CC53F"
   id="stop36" />
</linearGradient>
<path
   fill="url(#SVGID_5_)"
   d="m 323.90632,22.803999 h -9.881 v -5.288 h -3.641 v 13.928 h 3.641 v -5.757 h 9.881 v 5.757 h 3.597 v -13.928 h -3.597 z m -78.845,-3.768 c -1.69,-1.149 -4.323,-1.769 -7.897,-1.767 -3.592,-0.003 -6.228,0.617 -7.908,1.766 -0.838,0.571 -1.451,1.291 -1.869,2.186 -0.418,0.896 -0.635,1.972 -0.635,3.247 0,1.283 0.217,2.367 0.633,3.267 0.416,0.898 1.027,1.619 1.861,2.189 1.672,1.147 4.313,1.768 7.918,1.765 3.59,0.003 6.227,-0.616 7.908,-1.765 0.836,-0.571 1.45,-1.292 1.868,-2.19 0.416,-0.898 0.636,-1.982 0.636,-3.266 0,-1.274 -0.22,-2.352 -0.638,-3.246 -0.42,-0.895 -1.036,-1.614 -1.877,-2.186 z m -1.461,7.589 c -0.264,0.595 -0.711,1.075 -1.291,1.401 -0.577,0.328 -1.291,0.528 -2.141,0.631 -0.83,0.101 -1.83,0.149 -3.005,0.149 -1.174,0 -2.174,-0.049 -3.006,-0.149 -0.848,-0.103 -1.561,-0.303 -2.139,-0.63 -0.582,-0.327 -1.027,-0.809 -1.291,-1.402 -0.264,-0.591 -0.379,-1.308 -0.379,-2.157 0,-0.848 0.115,-1.565 0.377,-2.156 l 0.457,0.204 -0.455,-0.204 c 0.264,-0.595 0.713,-1.074 1.295,-1.394 0.578,-0.318 1.289,-0.514 2.135,-0.616 0.832,-0.101 1.832,-0.149 3.006,-0.149 1.175,0 2.175,0.049 3.005,0.149 0.848,0.103 1.559,0.298 2.137,0.616 0.582,0.319 1.031,0.798 1.295,1.394 0.265,0.591 0.379,1.308 0.379,2.156 0,0.85 -0.114,1.566 -0.379,2.157 z m 50.771,-5.098 c 0.438,-0.362 0.957,-0.641 1.543,-0.836 0.592,-0.197 1.227,-0.293 1.897,-0.293 h 7.25 l 2.203,-2.883 h -9.453 c -1.248,0 -2.395,0.169 -3.44,0.501 -1.05,0.333 -1.938,0.803 -2.681,1.406 -0.744,0.604 -1.319,1.319 -1.744,2.158 -0.416,0.827 -0.625,1.737 -0.627,2.753 0.002,1.017 0.211,1.944 0.631,2.805 0.424,0.87 1.002,1.614 1.748,2.249 0.744,0.634 1.638,1.136 2.688,1.505 1.041,0.366 2.182,0.552 3.426,0.552 h 7.252 l 2.195,-2.838 h -9.447 c -0.67,0 -1.303,-0.093 -1.893,-0.28 -0.586,-0.187 -1.107,-0.457 -1.554,-0.81 -0.448,-0.354 -0.807,-0.793 -1.053,-1.298 -0.252,-0.511 -0.377,-1.08 -0.375,-1.683 -0.002,-0.604 0.129,-1.179 0.387,-1.696 0.256,-0.507 0.607,-0.948 1.047,-1.312 z m -44.342,-1.128 h 6.49 v 11.045 h 3.619 v -11.045 h 5.586 l 2.221,-2.883 h -15.697 z m 24.478,5.177 h 9.428 l 1.873,-2.392 h -11.301 v -2.785 h 9.916 l 2.221,-2.883 h -15.777 v 13.928 h 13.625 l 2.193,-2.838 h -12.178 z m -53.241,2.602 c -0.303,-0.289 -0.571,-0.522 -0.808,-0.702 l -0.881,-0.674 1.09,-0.213 c 0.56,-0.11 1.05,-0.294 1.479,-0.553 0.437,-0.263 0.798,-0.575 1.095,-0.944 0.299,-0.37 0.524,-0.785 0.688,-1.254 0.16,-0.467 0.24,-0.96 0.24,-1.489 0,-0.998 -0.223,-1.764 -0.633,-2.344 -0.441,-0.624 -0.992,-1.111 -1.672,-1.479 -0.691,-0.374 -1.464,-0.636 -2.322,-0.783 -0.883,-0.152 -1.732,-0.228 -2.549,-0.228 h -9.351 l -2.235,2.883 h 11.965 c 0.86,0.001 1.582,0.15 2.146,0.516 0.586,0.366 0.91,1.02 0.897,1.725 0,0.338 -0.084,0.67 -0.256,0.954 -0.172,0.286 -0.422,0.52 -0.723,0.701 -0.584,0.354 -1.283,0.52 -2.066,0.519 h -12.485 v 6.631 h 3.618 v -3.949 h 7.828 l 3.324,3.949 h 4.787 l -1.945,-2.056 c -0.513,-0.514 -0.925,-0.919 -1.231,-1.21 z m -68.927,-2.602 h 9.428 l 1.873,-2.392 h -11.301 v -2.785 h 9.916 l 2.221,-2.883 h -15.777 v 13.928 h 13.623 l 2.195,-2.838 h -12.178 z m 27.119,1.826 -0.002,-0.002 c -0.963,-0.785 -1.746,-1.397 -2.346,-1.836 -0.607,-0.444 -1.125,-0.814 -1.551,-1.108 l -0.627,-0.432 0.646,-0.403 c 0.234,-0.146 0.471,-0.3 0.711,-0.461 l -0.002,0.002 0.004,-0.003 c 0.242,-0.16 0.51,-0.343 0.805,-0.551 0.293,-0.204 0.627,-0.446 1.004,-0.728 0.379,-0.281 0.813,-0.607 1.301,-0.979 l 0.002,-10e-4 4.514,-3.385 h -5.011 l -4.168,3.521 -0.002,0.002 c -0.68,0.561 -1.229,1.036 -1.641,1.42 -0.426,0.396 -0.789,0.729 -1.088,0.999 l -0.928,0.834 0.094,-1.244 c 0.029,-0.379 0.051,-0.789 0.066,-1.229 0.014,-0.44 0.021,-0.888 0.021,-1.345 v -2.958 h -3.641 v 13.928 h 3.641 v -3.784 c 0,-0.351 -0.008,-0.704 -0.021,-1.063 -0.016,-0.363 -0.031,-0.717 -0.045,-1.06 l -0.055,-1.286 0.908,0.912 c 0.244,0.244 0.57,0.552 0.975,0.92 0.404,0.367 0.994,0.886 1.766,1.555 l 0.002,0.001 4.365,3.804 h 5.369 l -5.064,-4.04 z m -48.478,-2.072 c 1.168,0.634 2.375,1.279 3.619,1.932 v -9.745 h -3.619 z m 54.605,-4.931 h 6.49 v 11.045 h 3.619 v -11.045 h 5.586 l 2.221,-2.883 h -15.697 z m -42.703,11.045 h 0.541 l 2.211,-2.838 h -8.428 c 1.821,0.933 3.698,1.876 5.676,2.838 z m -20.588,-11.045 h 3.322 l 2.219,-2.883 h -10.26 c 1.454,0.914 3.03,1.878 4.719,2.883 z m 222.498,6.508 -9.986,-8.963 -0.002,-0.002 c -0.342,-0.315 -0.629,-0.493 -0.813,-0.552 -0.243,-0.082 -0.477,-0.12 -0.7,-0.12 -0.273,0 -0.533,0.044 -0.785,0.129 -0.24,0.082 -0.439,0.205 -0.617,0.377 -0.172,0.167 -0.32,0.393 -0.441,0.696 -0.112,0.283 -0.178,0.644 -0.178,1.088 v 11.884 h 3.195 v -9.391 l 9.988,8.966 0.006,0.006 c 0.323,0.313 0.604,0.487 0.782,0.545 0.243,0.08 0.479,0.119 0.724,0.119 0.274,0 0.539,-0.043 0.803,-0.131 0.242,-0.081 0.441,-0.203 0.619,-0.381 0.174,-0.175 0.324,-0.406 0.445,-0.712 0.112,-0.283 0.178,-0.644 0.178,-1.088 v -11.861 h -3.217 v 9.391 z m 7.006,4.537 h 3.619 v -13.928 h -3.619 z m 19.337,-4.042 -0.004,-0.002 c -0.961,-0.785 -1.744,-1.397 -2.344,-1.836 -0.607,-0.444 -1.125,-0.814 -1.552,-1.108 l -0.625,-0.432 0.646,-0.403 c 0.231,-0.146 0.471,-0.3 0.711,-0.461 v 0.001 l 0.002,-0.002 c 0.242,-0.159 0.51,-0.343 0.805,-0.551 0.293,-0.204 0.627,-0.446 1.004,-0.728 0.377,-0.282 0.813,-0.607 1.304,-0.979 h -0.002 l 4.516,-3.386 h -5.012 l -4.17,3.521 -0.002,0.002 c -0.681,0.561 -1.228,1.036 -1.64,1.42 -0.426,0.396 -0.789,0.729 -1.088,0.998 l -0.928,0.836 0.094,-1.245 c 0.029,-0.379 0.051,-0.788 0.064,-1.229 0.016,-0.44 0.022,-0.889 0.022,-1.345 v -2.958 h -3.641 v 13.928 h 3.641 v -3.783 c 0,-0.351 -0.008,-0.704 -0.022,-1.062 -0.015,-0.364 -0.029,-0.718 -0.043,-1.06 l -0.056,-1.29 0.908,0.916 c 0.242,0.244 0.568,0.552 0.975,0.92 0.404,0.367 0.994,0.886 1.767,1.556 l 4.367,3.804 h 5.366 z"
   id="path36"
   style="fill:url(#SVGID_5_)" />
<g
   id="g40"
   transform="translate(-54.193684,-131.248)">
	<path
   fill="#e6e6e6"
   d="m 440.186,189.281 v -2.66 h 4.408 c 0.881,1.23 1.353,2.918 1.353,4.469 0,3.389 -2.295,5.866 -5.531,5.866 -3.238,0 -5.533,-2.478 -5.533,-5.929 0,-1.989 0.687,-3.602 1.945,-4.649 l 1.731,1.915 c -0.805,0.729 -1.184,1.564 -1.184,2.584 0,1.823 1.199,3.039 3.039,3.039 1.793,0 3.039,-1.216 3.039,-3.009 0,-0.563 -0.105,-1.095 -0.351,-1.626 z"
   id="path37" />
	<path
   fill="#e6e6e6"
   d="m 445.732,175.104 -5.64,0.03 4.59,2.736 v 1.337 l -4.438,2.721 h 5.486 v 2.781 h -10.64 v -2.479 l 6.142,-3.737 -6.142,-3.647 v -2.478 l 10.64,-0.03 z"
   id="path38" />
	<path
   fill="#e6e6e6"
   d="m 442.814,160.091 c 1.84,0 2.918,1.52 2.918,4.377 v 5.745 h -10.64 v -5.441 c 0,-2.796 1.142,-4.164 2.781,-4.164 1.02,0 1.84,0.517 2.311,1.429 0.427,-1.201 1.339,-1.946 2.63,-1.946 z m -5.546,7.142 h 2.054 v -2.066 c 0,-1.003 -0.351,-1.52 -1.035,-1.52 -0.668,0 -1.019,0.517 -1.019,1.52 z m 5.212,-4.103 c -0.729,0 -1.078,0.548 -1.078,1.581 v 2.522 h 2.157 v -2.522 c 0.002,-1.033 -0.348,-1.581 -1.079,-1.581 z"
   id="path39" />
	<path
   fill="#e6e6e6"
   d="m 435.094,148.405 h 10.64 v 3.009 h -4.148 v 4.104 h 4.148 v 3.01 h -10.64 v -3.01 h 3.998 v -4.104 h -3.998 z"
   id="path40" />
</g>
<g
   id="g54"
   transform="translate(-54.193684,-131.248)">
	<path
   fill="#8cc53f"
   d="m 168.24,209.684 1.097,-7.265 h 2.236 v 10.231 h -1.52 v -7.338 l -1.111,7.338 h -1.521 l -1.198,-7.235 v 7.235 h -1.403 v -10.231 h 2.236 z"
   id="path41" />
	<path
   fill="#8cc53f"
   d="m 190.296,206.73 h 2.208 v 1.463 h -2.208 v 2.996 h 2.777 v 1.461 h -4.385 v -10.231 h 4.385 v 1.462 h -2.777 z"
   id="path42" />
	<path
   fill="#8cc53f"
   d="m 210.015,202.419 h 1.607 v 10.231 h -1.607 z"
   id="path43" />
	<path
   fill="#8cc53f"
   d="m 230.903,202.302 c 1.564,0 2.368,0.937 2.368,2.573 v 0.32 h -1.521 v -0.424 c 0,-0.73 -0.292,-1.008 -0.804,-1.008 -0.512,0 -0.804,0.276 -0.804,1.008 0,2.104 3.143,2.5 3.143,5.424 0,1.638 -0.818,2.572 -2.397,2.572 -1.578,0 -2.397,-0.936 -2.397,-2.572 v -0.629 h 1.521 v 0.73 c 0,0.73 0.321,0.994 0.833,0.994 0.512,0 0.833,-0.264 0.833,-0.994 0,-2.104 -3.143,-2.5 -3.143,-5.423 0,-1.637 0.803,-2.571 2.368,-2.571 z"
   id="path44" />
	<path
   fill="#8cc53f"
   d="m 249.686,202.419 h 4.97 v 1.462 h -1.682 v 8.771 h -1.607 v -8.771 h -1.681 z"
   id="path45" />
	<path
   fill="#8cc53f"
   d="m 272.912,206.73 h 2.207 v 1.463 h -2.207 v 2.996 h 2.777 v 1.461 h -4.385 v -10.231 h 4.385 v 1.462 h -2.777 z"
   id="path46" />
	<path
   fill="#8cc53f"
   d="m 295.992,212.65 c -0.088,-0.262 -0.146,-0.424 -0.146,-1.256 v -1.608 c 0,-0.95 -0.32,-1.302 -1.053,-1.302 h -0.555 v 4.166 h -1.607 v -10.231 h 2.426 c 1.666,0 2.383,0.774 2.383,2.354 v 0.804 c 0,1.053 -0.336,1.739 -1.053,2.075 0.805,0.337 1.066,1.111 1.066,2.179 v 1.579 c 0,0.497 0.016,0.861 0.176,1.242 h -1.637 z m -1.754,-8.769 v 3.143 h 0.629 c 0.6,0 0.965,-0.263 0.965,-1.082 v -1.008 c 0,-0.73 -0.25,-1.053 -0.818,-1.053 z"
   id="path47" />
	<path
   fill="#8cc53f"
   d="m 319.262,204.771 v 0.365 c 0,1.053 -0.319,1.725 -1.037,2.063 0.863,0.336 1.199,1.109 1.199,2.191 v 0.834 c 0,1.578 -0.834,2.426 -2.44,2.426 h -2.529 v -10.231 h 2.428 c 1.664,0 2.379,0.774 2.379,2.352 z m -3.201,-0.89 v 2.704 h 0.63 c 0.6,0 0.965,-0.263 0.965,-1.082 v -0.569 c 0,-0.73 -0.248,-1.053 -0.818,-1.053 z m 0,4.166 v 3.143 h 0.923 c 0.541,0 0.834,-0.248 0.834,-1.008 v -0.893 c 0,-0.95 -0.31,-1.242 -1.039,-1.242 z"
   id="path48" />
	<path
   fill="#8cc53f"
   d="m 337.943,206.73 h 2.207 v 1.463 h -2.207 v 2.996 h 2.776 v 1.461 h -4.385 v -10.231 h 4.385 v 1.462 h -2.776 z"
   id="path49" />
	<path
   fill="#8cc53f"
   d="m 357.193,202.419 h 4.971 v 1.462 h -1.682 v 8.771 h -1.607 v -8.771 h -1.682 z"
   id="path50" />
	<path
   fill="#8cc53f"
   d="m 382.174,212.65 c -0.088,-0.262 -0.146,-0.424 -0.146,-1.256 v -1.608 c 0,-0.95 -0.32,-1.302 -1.054,-1.302 h -0.555 v 4.166 h -1.606 v -10.231 h 2.426 c 1.666,0 2.383,0.774 2.383,2.354 v 0.804 c 0,1.053 -0.336,1.739 -1.053,2.075 0.805,0.337 1.065,1.111 1.065,2.179 v 1.579 c 0,0.497 0.017,0.861 0.176,1.242 h -1.637 v -0.002 z m -1.754,-8.769 v 3.143 h 0.629 c 0.601,0 0.965,-0.263 0.965,-1.082 v -1.008 c 0,-0.73 -0.25,-1.053 -0.817,-1.053 z"
   id="path51" />
	<path
   fill="#8cc53f"
   d="m 400.635,202.419 h 1.607 v 10.231 h -1.607 z"
   id="path52" />
	<path
   fill="#8cc53f"
   d="m 420.967,206.73 h 2.209 v 1.463 h -2.209 v 2.996 h 2.777 v 1.461 h -4.385 v -10.231 h 4.385 v 1.462 h -2.777 z"
   id="path53" />
	<path
   fill="#8cc53f"
   d="m 445.494,204.771 v 0.365 c 0,1.053 -0.32,1.725 -1.037,2.063 0.863,0.336 1.199,1.109 1.199,2.191 v 0.834 c 0,1.578 -0.834,2.426 -2.441,2.426 h -2.529 v -10.231 h 2.429 c 1.664,0 2.379,0.774 2.379,2.352 z m -3.201,-0.89 v 2.704 h 0.629 c 0.601,0 0.965,-0.263 0.965,-1.082 v -0.569 c 0,-0.73 -0.248,-1.053 -0.817,-1.053 z m 0,4.166 v 3.143 h 0.922 c 0.541,0 0.834,-0.248 0.834,-1.008 v -0.893 c 0,-0.95 -0.309,-1.242 -1.039,-1.242 z"
   id="path54" />
</g>
</svg>
